<svg xmlns="http://www.w3.org/2000/svg" xmlns:xlink="http://www.w3.org/1999/xlink" width="500" zoomAndPan="magnify" viewBox="0 0 375 374.999991" height="500" preserveAspectRatio="xMidYMid meet" version="1.0"><defs><g/><clipPath id="af378a8c31"><path d="M 35 108 L 36 108 L 36 110 L 35 110 Z M 35 108 " clip-rule="nonzero"/></clipPath><clipPath id="aa91861fc9"><path d="M 35.480469 109.058594 L 35.765625 108.988281 L 35.480469 108.988281 Z M 35.480469 109.058594 " clip-rule="evenodd"/></clipPath><linearGradient x1="15.199998" gradientTransform="matrix(0.704436, 0, 0, 0.704436, 24.774588, 75.033328)" y1="48.293999" x2="15.599998" gradientUnits="userSpaceOnUse" y2="48.293999" id="01220088ea"><stop stop-opacity="1" stop-color="rgb(99.94812%, 99.94812%, 99.952698%)" offset="0"/><stop stop-opacity="1" stop-color="rgb(99.342346%, 99.342346%, 99.409485%)" offset="0.00390625"/><stop stop-opacity="1" stop-color="rgb(98.738098%, 98.738098%, 98.867798%)" offset="0.0078125"/><stop stop-opacity="1" stop-color="rgb(98.132324%, 98.132324%, 98.324585%)" offset="0.0117188"/><stop stop-opacity="1" stop-color="rgb(97.528076%, 97.528076%, 97.781372%)" offset="0.015625"/><stop stop-opacity="1" stop-color="rgb(96.922302%, 96.922302%, 97.238159%)" offset="0.0195313"/><stop stop-opacity="1" stop-color="rgb(96.318054%, 96.318054%, 96.696472%)" offset="0.0234375"/><stop stop-opacity="1" stop-color="rgb(95.463562%, 95.492554%, 95.881653%)" offset="0.0273437"/><stop stop-opacity="1" stop-color="rgb(94.610596%, 94.668579%, 95.068359%)" offset="0.03125"/><stop stop-opacity="1" stop-color="rgb(93.699646%, 93.79425%, 94.194031%)" offset="0.0351563"/><stop stop-opacity="1" stop-color="rgb(92.790222%, 92.919922%, 93.319702%)" offset="0.0390625"/><stop stop-opacity="1" stop-color="rgb(91.880798%, 92.045593%, 92.445374%)" offset="0.0429687"/><stop stop-opacity="1" stop-color="rgb(90.971375%, 91.172791%, 91.572571%)" offset="0.046875"/><stop stop-opacity="1" stop-color="rgb(90.061951%, 90.298462%, 90.698242%)" offset="0.0507813"/><stop stop-opacity="1" stop-color="rgb(89.152527%, 89.424133%, 89.823914%)" offset="0.0546875"/><stop stop-opacity="1" stop-color="rgb(88.241577%, 88.549805%, 88.949585%)" offset="0.0585938"/><stop stop-opacity="1" stop-color="rgb(87.332153%, 87.677002%, 88.076782%)" offset="0.0625"/><stop stop-opacity="1" stop-color="rgb(86.366272%, 86.738586%, 87.14447%)" offset="0.0664063"/><stop stop-opacity="1" stop-color="rgb(85.400391%, 85.800171%, 86.212158%)" offset="0.0703125"/><stop stop-opacity="1" stop-color="rgb(84.222412%, 84.622192%, 85.063171%)" offset="0.0742188"/><stop stop-opacity="1" stop-color="rgb(83.045959%, 83.44574%, 83.914185%)" offset="0.078125"/><stop stop-opacity="1" stop-color="rgb(81.867981%, 82.267761%, 82.765198%)" offset="0.0820313"/><stop stop-opacity="1" stop-color="rgb(80.691528%, 81.091309%, 81.617737%)" offset="0.0859375"/><stop stop-opacity="1" stop-color="rgb(79.51355%, 79.91333%, 80.46875%)" offset="0.0898438"/><stop stop-opacity="1" stop-color="rgb(78.337097%, 78.736877%, 79.319763%)" offset="0.09375"/><stop stop-opacity="1" stop-color="rgb(77.159119%, 77.558899%, 78.170776%)" offset="0.0976563"/><stop stop-opacity="1" stop-color="rgb(75.98114%, 76.382446%, 77.02179%)" offset="0.101563"/><stop stop-opacity="1" stop-color="rgb(74.803162%, 75.204468%, 75.872803%)" offset="0.105469"/><stop stop-opacity="1" stop-color="rgb(73.626709%, 74.028015%, 74.725342%)" offset="0.109375"/><stop stop-opacity="1" stop-color="rgb(72.44873%, 72.850037%, 73.576355%)" offset="0.113281"/><stop stop-opacity="1" stop-color="rgb(71.272278%, 71.673584%, 72.427368%)" offset="0.117188"/><stop stop-opacity="1" stop-color="rgb(70.06073%, 70.471191%, 71.260071%)" offset="0.121094"/><stop stop-opacity="1" stop-color="rgb(68.849182%, 69.270325%, 70.092773%)" offset="0.125"/><stop stop-opacity="1" stop-color="rgb(67.500305%, 67.974854%, 68.850708%)" offset="0.128906"/><stop stop-opacity="1" stop-color="rgb(66.152954%, 66.680908%, 67.608643%)" offset="0.132812"/><stop stop-opacity="1" stop-color="rgb(64.805603%, 65.385437%, 66.366577%)" offset="0.136719"/><stop stop-opacity="1" stop-color="rgb(63.458252%, 64.091492%, 65.124512%)" offset="0.140625"/><stop stop-opacity="1" stop-color="rgb(62.110901%, 62.796021%, 63.882446%)" offset="0.144531"/><stop stop-opacity="1" stop-color="rgb(60.76355%, 61.502075%, 62.640381%)" offset="0.148437"/><stop stop-opacity="1" stop-color="rgb(60.05249%, 60.821533%, 61.967468%)" offset="0.152344"/><stop stop-opacity="1" stop-color="rgb(59.342957%, 60.142517%, 61.294556%)" offset="0.15625"/><stop stop-opacity="1" stop-color="rgb(59.513855%, 60.313416%, 61.408997%)" offset="0.164062"/><stop stop-opacity="1" stop-color="rgb(59.855652%, 60.656738%, 61.637878%)" offset="0.171875"/><stop stop-opacity="1" stop-color="rgb(60.198975%, 60.998535%, 61.865234%)" offset="0.179687"/><stop stop-opacity="1" stop-color="rgb(61.05957%, 61.860657%, 62.75177%)" offset="0.183594"/><stop stop-opacity="1" stop-color="rgb(61.749268%, 62.550354%, 63.523865%)" offset="0.1875"/><stop stop-opacity="1" stop-color="rgb(62.486267%, 63.287354%, 64.355469%)" offset="0.191406"/><stop stop-opacity="1" stop-color="rgb(63.224792%, 64.024353%, 65.188599%)" offset="0.195313"/><stop stop-opacity="1" stop-color="rgb(64.691162%, 65.490723%, 66.577148%)" offset="0.199219"/><stop stop-opacity="1" stop-color="rgb(66.159058%, 66.958618%, 67.965698%)" offset="0.203125"/><stop stop-opacity="1" stop-color="rgb(67.948914%, 68.743896%, 69.648743%)" offset="0.207031"/><stop stop-opacity="1" stop-color="rgb(69.740295%, 70.530701%, 71.331787%)" offset="0.210937"/><stop stop-opacity="1" stop-color="rgb(72.558594%, 73.313904%, 74.113464%)" offset="0.214844"/><stop stop-opacity="1" stop-color="rgb(75.376892%, 76.097107%, 76.896667%)" offset="0.21875"/><stop stop-opacity="1" stop-color="rgb(78.35083%, 79.06189%, 79.6875%)" offset="0.222656"/><stop stop-opacity="1" stop-color="rgb(81.326294%, 82.026672%, 82.478333%)" offset="0.226563"/><stop stop-opacity="1" stop-color="rgb(81.404114%, 82.110596%, 82.536316%)" offset="0.230469"/><stop stop-opacity="1" stop-color="rgb(81.481934%, 82.194519%, 82.594299%)" offset="0.234375"/><stop stop-opacity="1" stop-color="rgb(81.190491%, 81.910706%, 82.310486%)" offset="0.238281"/><stop stop-opacity="1" stop-color="rgb(80.899048%, 81.626892%, 82.026672%)" offset="0.242187"/><stop stop-opacity="1" stop-color="rgb(80.607605%, 81.343079%, 81.742859%)" offset="0.246094"/><stop stop-opacity="1" stop-color="rgb(80.316162%, 81.059265%, 81.459045%)" offset="0.25"/><stop stop-opacity="1" stop-color="rgb(80.024719%, 80.773926%, 81.175232%)" offset="0.253906"/><stop stop-opacity="1" stop-color="rgb(79.734802%, 80.490112%, 80.891418%)" offset="0.257813"/><stop stop-opacity="1" stop-color="rgb(79.443359%, 80.206299%, 80.606079%)" offset="0.261719"/><stop stop-opacity="1" stop-color="rgb(79.151917%, 79.922485%, 80.322266%)" offset="0.265625"/><stop stop-opacity="1" stop-color="rgb(78.860474%, 79.638672%, 80.038452%)" offset="0.269531"/><stop stop-opacity="1" stop-color="rgb(78.569031%, 79.354858%, 79.754639%)" offset="0.273438"/><stop stop-opacity="1" stop-color="rgb(78.274536%, 79.067993%, 79.467773%)" offset="0.277344"/><stop stop-opacity="1" stop-color="rgb(77.980042%, 78.781128%, 79.180908%)" offset="0.28125"/><stop stop-opacity="1" stop-color="rgb(77.536011%, 78.337097%, 78.736877%)" offset="0.285156"/><stop stop-opacity="1" stop-color="rgb(77.093506%, 77.893066%, 78.292847%)" offset="0.289063"/><stop stop-opacity="1" stop-color="rgb(76.649475%, 77.449036%, 77.848816%)" offset="0.292969"/><stop stop-opacity="1" stop-color="rgb(76.205444%, 77.005005%, 77.404785%)" offset="0.296875"/><stop stop-opacity="1" stop-color="rgb(75.761414%, 76.560974%, 76.960754%)" offset="0.300781"/><stop stop-opacity="1" stop-color="rgb(75.317383%, 76.118469%, 76.51825%)" offset="0.304688"/><stop stop-opacity="1" stop-color="rgb(74.873352%, 75.674438%, 76.074219%)" offset="0.308594"/><stop stop-opacity="1" stop-color="rgb(74.430847%, 75.230408%, 75.630188%)" offset="0.3125"/><stop stop-opacity="1" stop-color="rgb(73.986816%, 74.786377%, 75.186157%)" offset="0.316406"/><stop stop-opacity="1" stop-color="rgb(73.542786%, 74.342346%, 74.743652%)" offset="0.320313"/><stop stop-opacity="1" stop-color="rgb(73.098755%, 73.898315%, 74.299622%)" offset="0.324219"/><stop stop-opacity="1" stop-color="rgb(72.65625%, 73.455811%, 73.855591%)" offset="0.328125"/><stop stop-opacity="1" stop-color="rgb(72.212219%, 73.01178%, 73.41156%)" offset="0.332031"/><stop stop-opacity="1" stop-color="rgb(71.768188%, 72.567749%, 72.967529%)" offset="0.335938"/><stop stop-opacity="1" stop-color="rgb(71.324158%, 72.123718%, 72.523499%)" offset="0.339844"/><stop stop-opacity="1" stop-color="rgb(70.880127%, 71.681213%, 72.080994%)" offset="0.34375"/><stop stop-opacity="1" stop-color="rgb(70.436096%, 71.237183%, 71.636963%)" offset="0.347656"/><stop stop-opacity="1" stop-color="rgb(69.993591%, 70.793152%, 71.192932%)" offset="0.351562"/><stop stop-opacity="1" stop-color="rgb(69.549561%, 70.349121%, 70.748901%)" offset="0.355469"/><stop stop-opacity="1" stop-color="rgb(69.10553%, 69.90509%, 70.304871%)" offset="0.359375"/><stop stop-opacity="1" stop-color="rgb(68.661499%, 69.46106%, 69.86084%)" offset="0.363281"/><stop stop-opacity="1" stop-color="rgb(68.217468%, 69.018555%, 69.418335%)" offset="0.367188"/><stop stop-opacity="1" stop-color="rgb(67.71698%, 68.516541%, 68.914795%)" offset="0.371094"/><stop stop-opacity="1" stop-color="rgb(67.216492%, 68.016052%, 68.412781%)" offset="0.375"/><stop stop-opacity="1" stop-color="rgb(66.664124%, 67.463684%, 67.857361%)" offset="0.378906"/><stop stop-opacity="1" stop-color="rgb(66.111755%, 66.912842%, 67.301941%)" offset="0.382812"/><stop stop-opacity="1" stop-color="rgb(65.559387%, 66.360474%, 66.746521%)" offset="0.386719"/><stop stop-opacity="1" stop-color="rgb(65.008545%, 65.808105%, 66.191101%)" offset="0.390625"/><stop stop-opacity="1" stop-color="rgb(64.456177%, 65.255737%, 65.635681%)" offset="0.394531"/><stop stop-opacity="1" stop-color="rgb(63.905334%, 64.704895%, 65.080261%)" offset="0.398437"/><stop stop-opacity="1" stop-color="rgb(63.352966%, 64.152527%, 64.524841%)" offset="0.402344"/><stop stop-opacity="1" stop-color="rgb(62.800598%, 63.600159%, 63.970947%)" offset="0.40625"/><stop stop-opacity="1" stop-color="rgb(62.24823%, 63.047791%, 63.415527%)" offset="0.410156"/><stop stop-opacity="1" stop-color="rgb(61.697388%, 62.496948%, 62.860107%)" offset="0.414062"/><stop stop-opacity="1" stop-color="rgb(61.14502%, 61.94458%, 62.304688%)" offset="0.417969"/><stop stop-opacity="1" stop-color="rgb(60.592651%, 61.393738%, 61.749268%)" offset="0.421875"/><stop stop-opacity="1" stop-color="rgb(60.040283%, 60.84137%, 61.193848%)" offset="0.425781"/><stop stop-opacity="1" stop-color="rgb(59.489441%, 60.289001%, 60.638428%)" offset="0.429687"/><stop stop-opacity="1" stop-color="rgb(58.937073%, 59.736633%, 60.083008%)" offset="0.433594"/><stop stop-opacity="1" stop-color="rgb(58.384705%, 59.185791%, 59.527588%)" offset="0.4375"/><stop stop-opacity="1" stop-color="rgb(57.832336%, 58.633423%, 58.972168%)" offset="0.441406"/><stop stop-opacity="1" stop-color="rgb(57.281494%, 58.081055%, 58.416748%)" offset="0.445312"/><stop stop-opacity="1" stop-color="rgb(56.729126%, 57.528687%, 57.861328%)" offset="0.449219"/><stop stop-opacity="1" stop-color="rgb(56.178284%, 56.977844%, 57.307434%)" offset="0.453125"/><stop stop-opacity="1" stop-color="rgb(55.625916%, 56.425476%, 56.752014%)" offset="0.457031"/><stop stop-opacity="1" stop-color="rgb(55.073547%, 55.873108%, 56.196594%)" offset="0.460937"/><stop stop-opacity="1" stop-color="rgb(54.521179%, 55.32074%, 55.641174%)" offset="0.464844"/><stop stop-opacity="1" stop-color="rgb(53.970337%, 54.769897%, 55.085754%)" offset="0.46875"/><stop stop-opacity="1" stop-color="rgb(53.417969%, 54.217529%, 54.530334%)" offset="0.472656"/><stop stop-opacity="1" stop-color="rgb(52.865601%, 53.666687%, 53.974915%)" offset="0.476562"/><stop stop-opacity="1" stop-color="rgb(52.313232%, 53.114319%, 53.419495%)" offset="0.480469"/><stop stop-opacity="1" stop-color="rgb(51.76239%, 52.561951%, 52.864075%)" offset="0.484375"/><stop stop-opacity="1" stop-color="rgb(51.150513%, 51.939392%, 52.253723%)" offset="0.488281"/><stop stop-opacity="1" stop-color="rgb(50.538635%, 51.318359%, 51.643372%)" offset="0.492187"/><stop stop-opacity="1" stop-color="rgb(49.89624%, 50.660706%, 51.005554%)" offset="0.496094"/><stop stop-opacity="1" stop-color="rgb(49.255371%, 50.004578%, 50.367737%)" offset="0.5"/><stop stop-opacity="1" stop-color="rgb(48.612976%, 49.34845%, 49.729919%)" offset="0.503906"/><stop stop-opacity="1" stop-color="rgb(47.972107%, 48.692322%, 49.093628%)" offset="0.507812"/><stop stop-opacity="1" stop-color="rgb(47.331238%, 48.034668%, 48.455811%)" offset="0.511719"/><stop stop-opacity="1" stop-color="rgb(46.690369%, 47.37854%, 47.817993%)" offset="0.515625"/><stop stop-opacity="1" stop-color="rgb(46.047974%, 46.722412%, 47.180176%)" offset="0.519531"/><stop stop-opacity="1" stop-color="rgb(45.407104%, 46.066284%, 46.542358%)" offset="0.523437"/><stop stop-opacity="1" stop-color="rgb(44.766235%, 45.40863%, 45.904541%)" offset="0.527344"/><stop stop-opacity="1" stop-color="rgb(44.125366%, 44.752502%, 45.26825%)" offset="0.53125"/><stop stop-opacity="1" stop-color="rgb(43.482971%, 44.094849%, 44.630432%)" offset="0.535156"/><stop stop-opacity="1" stop-color="rgb(42.842102%, 43.438721%, 43.992615%)" offset="0.539062"/><stop stop-opacity="1" stop-color="rgb(42.199707%, 42.782593%, 43.354797%)" offset="0.542969"/><stop stop-opacity="1" stop-color="rgb(41.558838%, 42.126465%, 42.71698%)" offset="0.546875"/><stop stop-opacity="1" stop-color="rgb(40.917969%, 41.468811%, 42.079163%)" offset="0.550781"/><stop stop-opacity="1" stop-color="rgb(40.2771%, 40.812683%, 41.442871%)" offset="0.554688"/><stop stop-opacity="1" stop-color="rgb(39.634705%, 40.156555%, 40.805054%)" offset="0.558594"/><stop stop-opacity="1" stop-color="rgb(38.993835%, 39.500427%, 40.167236%)" offset="0.5625"/><stop stop-opacity="1" stop-color="rgb(38.35144%, 38.842773%, 39.529419%)" offset="0.566406"/><stop stop-opacity="1" stop-color="rgb(37.710571%, 38.186646%, 38.891602%)" offset="0.570312"/><stop stop-opacity="1" stop-color="rgb(37.069702%, 37.530518%, 38.253784%)" offset="0.574219"/><stop stop-opacity="1" stop-color="rgb(36.428833%, 36.87439%, 37.617493%)" offset="0.578125"/><stop stop-opacity="1" stop-color="rgb(35.786438%, 36.216736%, 36.979675%)" offset="0.582031"/><stop stop-opacity="1" stop-color="rgb(35.145569%, 35.560608%, 36.341858%)" offset="0.585937"/><stop stop-opacity="1" stop-color="rgb(35.015869%, 35.423279%, 36.236572%)" offset="0.589844"/><stop stop-opacity="1" stop-color="rgb(34.886169%, 35.28595%, 36.131287%)" offset="0.59375"/><stop stop-opacity="1" stop-color="rgb(35.276794%, 35.676575%, 36.564636%)" offset="0.597656"/><stop stop-opacity="1" stop-color="rgb(35.667419%, 36.0672%, 36.999512%)" offset="0.601562"/><stop stop-opacity="1" stop-color="rgb(36.056519%, 36.456299%, 37.434387%)" offset="0.605469"/><stop stop-opacity="1" stop-color="rgb(36.447144%, 36.846924%, 37.869263%)" offset="0.609375"/><stop stop-opacity="1" stop-color="rgb(36.836243%, 37.237549%, 38.304138%)" offset="0.613281"/><stop stop-opacity="1" stop-color="rgb(37.226868%, 37.628174%, 38.739014%)" offset="0.617187"/><stop stop-opacity="1" stop-color="rgb(37.620544%, 38.020325%, 39.176941%)" offset="0.621094"/><stop stop-opacity="1" stop-color="rgb(38.014221%, 38.414001%, 39.614868%)" offset="0.625"/><stop stop-opacity="1" stop-color="rgb(38.673401%, 39.100647%, 40.301514%)" offset="0.628906"/><stop stop-opacity="1" stop-color="rgb(39.332581%, 39.787292%, 40.988159%)" offset="0.632812"/><stop stop-opacity="1" stop-color="rgb(39.99176%, 40.473938%, 41.673279%)" offset="0.636719"/><stop stop-opacity="1" stop-color="rgb(40.652466%, 41.160583%, 42.359924%)" offset="0.640625"/><stop stop-opacity="1" stop-color="rgb(41.311646%, 41.847229%, 43.04657%)" offset="0.644531"/><stop stop-opacity="1" stop-color="rgb(41.970825%, 42.533875%, 43.733215%)" offset="0.648437"/><stop stop-opacity="1" stop-color="rgb(42.630005%, 43.22052%, 44.419861%)" offset="0.652344"/><stop stop-opacity="1" stop-color="rgb(43.29071%, 43.907166%, 45.106506%)" offset="0.65625"/><stop stop-opacity="1" stop-color="rgb(43.94989%, 44.593811%, 45.793152%)" offset="0.660156"/><stop stop-opacity="1" stop-color="rgb(44.610596%, 45.280457%, 46.479797%)" offset="0.664062"/><stop stop-opacity="1" stop-color="rgb(45.269775%, 45.965576%, 47.166443%)" offset="0.667969"/><stop stop-opacity="1" stop-color="rgb(45.928955%, 46.652222%, 47.853088%)" offset="0.671875"/><stop stop-opacity="1" stop-color="rgb(46.588135%, 47.338867%, 48.539734%)" offset="0.675781"/><stop stop-opacity="1" stop-color="rgb(47.24884%, 48.025513%, 49.226379%)" offset="0.679687"/><stop stop-opacity="1" stop-color="rgb(47.976685%, 48.765564%, 49.966431%)" offset="0.683594"/><stop stop-opacity="1" stop-color="rgb(48.706055%, 49.505615%, 50.706482%)" offset="0.6875"/><stop stop-opacity="1" stop-color="rgb(49.058533%, 49.786377%, 50.987244%)" offset="0.691406"/><stop stop-opacity="1" stop-color="rgb(49.412537%, 50.067139%, 51.268005%)" offset="0.695312"/><stop stop-opacity="1" stop-color="rgb(42.855835%, 43.011475%, 44.212341%)" offset="0.699219"/><stop stop-opacity="1" stop-color="rgb(36.299133%, 35.957336%, 37.156677%)" offset="0.703125"/><stop stop-opacity="1" stop-color="rgb(31.393433%, 30.834961%, 31.660461%)" offset="0.707031"/><stop stop-opacity="1" stop-color="rgb(26.489258%, 25.714111%, 26.164246%)" offset="0.710937"/><stop stop-opacity="1" stop-color="rgb(23.390198%, 22.267151%, 22.860718%)" offset="0.714844"/><stop stop-opacity="1" stop-color="rgb(20.291138%, 18.821716%, 19.55719%)" offset="0.71875"/><stop stop-opacity="1" stop-color="rgb(17.953491%, 16.586304%, 17.1875%)" offset="0.722656"/><stop stop-opacity="1" stop-color="rgb(15.617371%, 14.350891%, 14.81781%)" offset="0.726562"/><stop stop-opacity="1" stop-color="rgb(14.860535%, 13.526917%, 13.928223%)" offset="0.730469"/><stop stop-opacity="1" stop-color="rgb(14.103699%, 12.704468%, 13.038635%)" offset="0.734375"/><stop stop-opacity="1" stop-color="rgb(17.477417%, 16.094971%, 16.343689%)" offset="0.738281"/><stop stop-opacity="1" stop-color="rgb(20.851135%, 19.487%, 19.650269%)" offset="0.742187"/><stop stop-opacity="1" stop-color="rgb(26.837158%, 25.602722%, 25.683594%)" offset="0.746094"/><stop stop-opacity="1" stop-color="rgb(32.824707%, 31.718445%, 31.718445%)" offset="0.75"/><stop stop-opacity="1" stop-color="rgb(38.294983%, 37.336731%, 37.336731%)" offset="0.753906"/><stop stop-opacity="1" stop-color="rgb(43.765259%, 42.955017%, 42.955017%)" offset="0.757812"/><stop stop-opacity="1" stop-color="rgb(48.570251%, 47.798157%, 47.866821%)" offset="0.761719"/><stop stop-opacity="1" stop-color="rgb(53.37677%, 52.642822%, 52.780151%)" offset="0.765625"/><stop stop-opacity="1" stop-color="rgb(57.794189%, 57.032776%, 57.279968%)" offset="0.769531"/><stop stop-opacity="1" stop-color="rgb(62.213135%, 61.422729%, 61.781311%)" offset="0.773437"/><stop stop-opacity="1" stop-color="rgb(66.183472%, 65.484619%, 65.766907%)" offset="0.777344"/><stop stop-opacity="1" stop-color="rgb(70.153809%, 69.546509%, 69.754028%)" offset="0.78125"/><stop stop-opacity="1" stop-color="rgb(73.881531%, 73.39325%, 73.497009%)" offset="0.785156"/><stop stop-opacity="1" stop-color="rgb(77.610779%, 77.23999%, 77.23999%)" offset="0.789062"/><stop stop-opacity="1" stop-color="rgb(80.409241%, 80.148315%, 80.148315%)" offset="0.792969"/><stop stop-opacity="1" stop-color="rgb(83.209229%, 83.056641%, 83.056641%)" offset="0.796875"/><stop stop-opacity="1" stop-color="rgb(85.697937%, 85.621643%, 85.621643%)" offset="0.800781"/><stop stop-opacity="1" stop-color="rgb(88.188171%, 88.188171%, 88.188171%)" offset="0.804687"/><stop stop-opacity="1" stop-color="rgb(89.971924%, 89.971924%, 89.971924%)" offset="0.808594"/><stop stop-opacity="1" stop-color="rgb(91.755676%, 91.755676%, 91.755676%)" offset="0.8125"/><stop stop-opacity="1" stop-color="rgb(93.331909%, 93.331909%, 93.331909%)" offset="0.816406"/><stop stop-opacity="1" stop-color="rgb(94.908142%, 94.908142%, 94.908142%)" offset="0.820312"/><stop stop-opacity="1" stop-color="rgb(96.087646%, 96.087646%, 96.087646%)" offset="0.824219"/><stop stop-opacity="1" stop-color="rgb(97.268677%, 97.268677%, 97.268677%)" offset="0.828125"/><stop stop-opacity="1" stop-color="rgb(98.031616%, 98.031616%, 98.031616%)" offset="0.832031"/><stop stop-opacity="1" stop-color="rgb(98.796082%, 98.796082%, 98.796082%)" offset="0.835937"/><stop stop-opacity="1" stop-color="rgb(99.176025%, 99.176025%, 99.176025%)" offset="0.839844"/><stop stop-opacity="1" stop-color="rgb(99.555969%, 99.555969%, 99.555969%)" offset="0.84375"/><stop stop-opacity="1" stop-color="rgb(98.960876%, 99.000549%, 99.031067%)" offset="0.847656"/><stop stop-opacity="1" stop-color="rgb(98.36731%, 98.446655%, 98.506165%)" offset="0.851562"/><stop stop-opacity="1" stop-color="rgb(96.417236%, 96.591187%, 96.722412%)" offset="0.855469"/><stop stop-opacity="1" stop-color="rgb(94.467163%, 94.737244%, 94.93866%)" offset="0.859375"/><stop stop-opacity="1" stop-color="rgb(92.652893%, 93.006897%, 93.258667%)" offset="0.863281"/><stop stop-opacity="1" stop-color="rgb(90.840149%, 91.278076%, 91.578674%)" offset="0.867187"/><stop stop-opacity="1" stop-color="rgb(89.323425%, 89.820862%, 90.12146%)" offset="0.871094"/><stop stop-opacity="1" stop-color="rgb(87.808228%, 88.365173%, 88.665771%)" offset="0.875"/><stop stop-opacity="1" stop-color="rgb(86.291504%, 86.907959%, 87.208557%)" offset="0.878906"/><stop stop-opacity="1" stop-color="rgb(84.776306%, 85.452271%, 85.751343%)" offset="0.882812"/><stop stop-opacity="1" stop-color="rgb(83.259583%, 83.995056%, 84.294128%)" offset="0.886719"/><stop stop-opacity="1" stop-color="rgb(81.744385%, 82.537842%, 82.83844%)" offset="0.890625"/><stop stop-opacity="1" stop-color="rgb(80.706787%, 81.448364%, 81.871033%)" offset="0.894531"/><stop stop-opacity="1" stop-color="rgb(79.669189%, 80.360413%, 80.905151%)" offset="0.898438"/><stop stop-opacity="1" stop-color="rgb(78.656006%, 79.290771%, 79.963684%)" offset="0.902344"/><stop stop-opacity="1" stop-color="rgb(77.642822%, 78.22113%, 79.022217%)" offset="0.90625"/><stop stop-opacity="1" stop-color="rgb(76.629639%, 77.149963%, 78.08075%)" offset="0.910156"/><stop stop-opacity="1" stop-color="rgb(75.617981%, 76.080322%, 77.139282%)" offset="0.914062"/><stop stop-opacity="1" stop-color="rgb(74.794006%, 75.250244%, 76.35498%)" offset="0.917969"/><stop stop-opacity="1" stop-color="rgb(73.970032%, 74.420166%, 75.570679%)" offset="0.921875"/><stop stop-opacity="1" stop-color="rgb(73.379517%, 73.884583%, 74.980164%)" offset="0.925781"/><stop stop-opacity="1" stop-color="rgb(72.790527%, 73.348999%, 74.389648%)" offset="0.929687"/><stop stop-opacity="1" stop-color="rgb(72.200012%, 72.813416%, 73.799133%)" offset="0.933594"/><stop stop-opacity="1" stop-color="rgb(71.611023%, 72.279358%, 73.210144%)" offset="0.9375"/><stop stop-opacity="1" stop-color="rgb(71.020508%, 71.743774%, 72.619629%)" offset="0.941406"/><stop stop-opacity="1" stop-color="rgb(70.429993%, 71.208191%, 72.03064%)" offset="0.945312"/><stop stop-opacity="1" stop-color="rgb(70.150757%, 70.939636%, 71.791077%)" offset="0.949219"/><stop stop-opacity="1" stop-color="rgb(69.871521%, 70.671082%, 71.55304%)" offset="0.953125"/><stop stop-opacity="1" stop-color="rgb(69.667053%, 70.466614%, 71.400452%)" offset="0.957031"/><stop stop-opacity="1" stop-color="rgb(69.464111%, 70.263672%, 71.247864%)" offset="0.960938"/><stop stop-opacity="1" stop-color="rgb(69.259644%, 70.059204%, 71.09375%)" offset="0.964844"/><stop stop-opacity="1" stop-color="rgb(69.056702%, 69.856262%, 70.941162%)" offset="0.96875"/><stop stop-opacity="1" stop-color="rgb(68.852234%, 69.651794%, 70.788574%)" offset="0.972656"/><stop stop-opacity="1" stop-color="rgb(68.647766%, 69.448853%, 70.635986%)" offset="0.976562"/><stop stop-opacity="1" stop-color="rgb(68.623352%, 69.422913%, 70.617676%)" offset="0.984375"/><stop stop-opacity="1" stop-color="rgb(68.598938%, 69.398499%, 70.599365%)" offset="1"/></linearGradient><clipPath id="e4cfb1645b"><path d="M 122 261 L 253 261 L 253 307.097656 L 122 307.097656 Z M 122 261 " clip-rule="nonzero"/></clipPath><clipPath id="9f2b8df089"><path d="M 295 242 L 350.207031 242 L 350.207031 245 L 295 245 Z M 295 242 " clip-rule="nonzero"/></clipPath><clipPath id="fd06d0dc9b"><path d="M 24.707031 242 L 80 242 L 80 245 L 24.707031 245 Z M 24.707031 242 " clip-rule="nonzero"/></clipPath></defs><g clip-path="url(#af378a8c31)"><g clip-path="url(#aa91861fc9)"><path fill="url(#01220088ea)" d="M 35.480469 108.988281 L 35.480469 109.058594 L 35.765625 109.058594 L 35.765625 108.988281 Z M 35.480469 108.988281 " fill-rule="nonzero"/></g></g><path fill="#fdc251" d="M 75.070312 135.683594 C 81.761719 129.273438 89.300781 124.976562 97.613281 123.074219 C 99.445312 122.652344 101.277344 122.371094 103.179688 122.230469 C 121.5625 120.609375 143.121094 120.398438 160.871094 125.824219 C 165.660156 127.300781 170.171875 129.132812 174.539062 131.175781 C 174.679688 131.246094 174.820312 131.316406 174.960938 131.457031 C 179.960938 133.855469 184.679688 136.460938 189.332031 139.207031 C 184.753906 136.179688 180.03125 133.21875 175.242188 130.613281 L 176.652344 126.035156 C 178.269531 125.824219 179.820312 125.753906 181.300781 126.035156 C 188.414062 127.160156 194.050781 133.21875 197.007812 139.347656 C 197.855469 139.417969 198.699219 139.488281 199.617188 139.628906 C 194.261719 126.878906 185.949219 123.003906 177.214844 124.203125 L 177.074219 124.203125 C 176.722656 124.273438 176.371094 124.34375 175.945312 124.414062 L 175.804688 124.414062 C 173.199219 124.90625 170.59375 125.824219 168.058594 127.089844 C 167.28125 126.738281 166.578125 126.457031 165.800781 126.175781 C 168.621094 124.90625 171.507812 123.921875 174.539062 123.289062 C 176.441406 122.863281 178.339844 122.582031 180.3125 122.441406 C 199.191406 120.820312 221.382812 120.609375 239.628906 126.035156 C 250.40625 129.203125 259.84375 134.136719 268.933594 139.277344 C 259.773438 133.429688 250.125 127.65625 240.121094 124.625 C 223.355469 119.484375 199.828125 118.566406 182.144531 120.328125 C 175.03125 121.03125 168.902344 122.792969 163.617188 125.328125 C 162.914062 125.046875 162.140625 124.835938 161.433594 124.554688 C 145.164062 119.414062 122.269531 118.496094 105.082031 120.257812 C 96.980469 121.101562 90.144531 123.289062 84.511719 126.667969 C 84.582031 126.597656 84.652344 126.597656 84.722656 126.527344 C 84.019531 117.230469 83.804688 112.792969 83.875 102.648438 C 153.191406 78.554688 222.15625 78.273438 291.261719 102.578125 C 291.191406 117.300781 290.910156 127.867188 289.289062 141.390625 C 292.460938 141.882812 295.488281 142.589844 298.308594 143.433594 C 300.210938 128.007812 300.632812 114.761719 300.492188 96.097656 C 226.878906 68.695312 151.714844 67.847656 74.71875 96.097656 C 74.296875 111.59375 74.71875 120.046875 75.917969 132.9375 C 76.480469 132.515625 77.042969 132.023438 77.605469 131.527344 C 74.367188 134.136719 72.183594 136.25 68.730469 139.488281 C 64.996094 143.082031 60.914062 144.84375 56.542969 146.320312 C 56.542969 146.320312 56.332031 146.816406 56.121094 148.363281 C 57.8125 147.730469 59.925781 147.308594 62.039062 146.320312 C 67.039062 143.714844 71.054688 139.488281 75.070312 135.683594 Z M 175.171875 126.105469 L 173.902344 129.699219 C 172.636719 129.0625 171.367188 128.429688 170.101562 127.796875 C 171.789062 127.089844 173.480469 126.527344 175.171875 126.105469 Z M 79.933594 129.484375 C 80.003906 129.414062 80.003906 129.414062 79.933594 129.484375 C 80.003906 129.414062 80.003906 129.414062 79.933594 129.484375 C 79.792969 129.628906 79.578125 129.769531 79.4375 129.839844 C 79.648438 129.699219 79.792969 129.558594 79.933594 129.484375 Z M 79.933594 129.484375 " fill-opacity="1" fill-rule="evenodd"/><path fill="#fdc251" d="M 52.601562 162.59375 C 53.304688 161.257812 53.867188 160.410156 54.714844 159.355469 C 65.632812 147.097656 73.238281 164.777344 71.972656 179.148438 C 75.210938 163.792969 70.84375 152.804688 61.757812 153.578125 L 61.828125 153.507812 L 61.265625 153.648438 C 60.347656 153.789062 59.363281 154 58.375 154.351562 L 54.925781 155.199219 C 63.730469 147.238281 116.28125 147.238281 127.058594 147.800781 C 102.613281 145.546875 78.382812 146.394531 54.21875 150.972656 C 53.515625 152.097656 52.246094 154.988281 51.542969 157.875 C 50.839844 160.832031 50.910156 162.875 50.910156 166.679688 C 51.542969 165.835938 51.964844 163.933594 52.601562 162.59375 Z M 52.601562 162.59375 " fill-opacity="1" fill-rule="evenodd"/><path fill="#fdc251" d="M 122.339844 175.484375 L 122.339844 174.359375 L 93.527344 173.65625 L 95.007812 175.0625 Z M 122.339844 175.484375 " fill-opacity="1" fill-rule="evenodd"/><path fill="#fdc251" d="M 73.59375 151.886719 C 71.265625 152.097656 68.941406 152.308594 66.617188 152.734375 C 66.828125 153.296875 66.898438 154 66.898438 154.210938 C 82.75 152.589844 102.050781 151.886719 117.972656 151.464844 L 117.972656 151.113281 C 100.007812 150.335938 89.652344 150.335938 73.59375 151.886719 Z M 73.59375 151.886719 " fill-opacity="1" fill-rule="evenodd"/><path fill="#fdc251" d="M 122.691406 165.273438 C 110.644531 164.917969 98.316406 165.34375 86.203125 165.34375 L 88.808594 168.160156 C 100.078125 168.019531 111.632812 167.457031 122.691406 167.457031 Z M 122.691406 165.273438 " fill-opacity="1" fill-rule="evenodd"/><path fill="#fdc251" d="M 185.035156 178.375 L 185.035156 178.023438 L 184.1875 178.65625 Z M 185.035156 178.375 " fill-opacity="1" fill-rule="evenodd"/><path fill="#fdc251" d="M 100.007812 123.992188 C 99.65625 124.0625 99.304688 124.132812 98.953125 124.203125 L 98.8125 124.203125 C 88.457031 126.316406 77.75 135.472656 71.054688 144.914062 L 123.113281 142.730469 C 118.042969 127.300781 109.308594 122.652344 100.148438 123.992188 Z M 71.902344 144.28125 C 77.394531 137.65625 88.597656 128.289062 98.175781 126.105469 L 92.402344 142.730469 L 93.527344 142.660156 Z M 104.164062 125.824219 C 111.632812 127.089844 117.476562 133.996094 120.085938 140.617188 L 94.65625 142.519531 L 99.585938 125.824219 C 101.207031 125.613281 102.753906 125.613281 104.164062 125.824219 Z M 104.164062 125.824219 " fill-opacity="1" fill-rule="evenodd"/><path fill="#fdc251" d="M 184.46875 138.996094 C 164.113281 125.824219 148.613281 122.371094 116.914062 124.0625 L 129.242188 141.460938 Z M 179.75 138.082031 L 130.015625 139.207031 L 119.875 125.613281 C 141.289062 123.359375 162.84375 126.457031 179.75 138.082031 Z M 179.75 138.082031 " fill-opacity="1" fill-rule="evenodd"/><path fill="#fdc251" d="M 124.875 155.761719 C 107.898438 155.761719 90.992188 156.042969 74.085938 156.183594 C 77.890625 163.085938 79.507812 171.046875 79.4375 179.78125 L 81.691406 179.78125 C 82.46875 172.878906 82.75 166.257812 79.4375 160.128906 C 94.230469 159.636719 109.023438 159.214844 123.816406 158.648438 Z M 124.875 155.761719 " fill-opacity="1" fill-rule="evenodd"/><path fill="#fdc251" d="M 267.242188 138.785156 C 267.382812 138.785156 267.59375 138.785156 267.734375 138.785156 C 266.183594 137.867188 264.566406 136.953125 262.945312 136.109375 C 264 136.742188 265.128906 137.445312 266.183594 138.152344 Z M 267.242188 138.785156 " fill-opacity="1" fill-rule="evenodd"/><path fill="#fdc251" d="M 194.332031 124.0625 L 206.097656 140.265625 C 207.714844 140.546875 209.265625 140.898438 210.886719 141.25 L 263.789062 138.996094 C 242.9375 125.894531 227.019531 122.441406 194.332031 124.0625 Z M 258.929688 138.082031 L 207.785156 139.207031 L 197.363281 125.613281 C 219.410156 123.359375 241.601562 126.457031 258.929688 138.082031 Z M 258.929688 138.082031 " fill-opacity="1" fill-rule="evenodd"/><path fill="#fdc251" d="M 264.421875 178.375 L 264.421875 178.023438 L 263.578125 178.65625 Z M 264.421875 178.375 " fill-opacity="1" fill-rule="evenodd"/><path fill="#fdc251" d="M 305.984375 188.234375 C 313.804688 187.953125 321.765625 187.109375 329.582031 187.109375 L 324.722656 180.910156 L 323.242188 170.695312 C 324.863281 165.058594 319.933594 159.777344 317.679688 158.226562 C 316.339844 157.3125 315.285156 154.351562 313.3125 152.097656 C 301.898438 138.996094 267.3125 138.011719 249.417969 141.53125 C 253.011719 142.09375 292.53125 138.222656 308.238281 151.394531 L 264.777344 151.746094 C 265.761719 154.703125 266.820312 157.59375 267.734375 160.480469 C 263.578125 160.058594 259.492188 159.355469 255.40625 158.648438 L 250.898438 157.945312 L 247.515625 157.3125 C 244.136719 156.535156 242.234375 156.746094 240.402344 153.859375 C 239.769531 152.804688 238.992188 151.394531 237.796875 149.632812 C 244.207031 150.335938 252.308594 150.761719 258.367188 152.875 C 260.972656 153.789062 263.015625 156.535156 264.492188 158.929688 C 263.4375 155.832031 262.664062 151.535156 257.941406 150.125 C 245.96875 148.363281 233.992188 146.109375 221.945312 144.914062 C 207.011719 138.714844 183.835938 138.714844 170.382812 141.53125 C 173.832031 142.09375 212.296875 138.222656 227.582031 151.394531 L 185.316406 151.746094 C 186.230469 154.703125 187.289062 157.59375 188.203125 160.480469 C 184.1875 160.058594 180.171875 159.355469 176.226562 158.648438 L 171.859375 157.945312 L 168.550781 157.3125 C 165.238281 156.535156 163.40625 156.746094 161.574219 153.859375 C 160.941406 152.804688 160.238281 151.394531 159.039062 149.632812 C 165.238281 150.335938 173.128906 150.761719 179.046875 152.875 C 181.582031 153.789062 183.554688 156.535156 185.035156 158.929688 C 184.046875 155.832031 183.273438 151.535156 178.695312 150.125 C 161.929688 147.589844 145.09375 144.066406 128.046875 144.066406 L 150.304688 147.730469 L 152.839844 148.433594 C 155.234375 149 157.277344 151.886719 158.898438 154.351562 C 160.871094 157.453125 162.914062 158.4375 165.519531 159.214844 C 179.46875 163.085938 195.460938 164.003906 209.972656 165.625 C 216.804688 166.398438 216.734375 166.1875 222.792969 164.566406 C 225.609375 163.792969 232.160156 160.621094 233.640625 160.480469 C 233.359375 164.144531 228.566406 164.566406 227.792969 166.679688 L 235.046875 166.679688 L 239.0625 167.101562 C 232.511719 169.355469 223.425781 170.34375 215.886719 170.132812 C 195.390625 169.640625 172.496094 168.863281 152.699219 164.214844 L 152.699219 166.679688 C 152.699219 173.371094 154.53125 174.921875 159.320312 176.824219 C 174.257812 182.8125 203.984375 180.558594 221.804688 180.488281 L 221.875 181.191406 L 219.832031 181.191406 C 209.40625 181.542969 199.332031 182.742188 189.402344 182.460938 C 179.609375 182.179688 165.945312 183.304688 154.25 177.597656 C 159.179688 184.574219 177.144531 184.855469 188.765625 184.785156 C 195.035156 184.785156 201.304688 184.855469 207.714844 184.855469 L 214.761719 184.855469 L 214.832031 186.476562 L 175.804688 186.265625 C 166.226562 186.265625 156.011719 185.839844 152.136719 180.066406 L 151.433594 178.585938 C 150.9375 175.625 150.023438 163.722656 146.570312 157.382812 C 143.472656 151.675781 136.640625 149.140625 131.074219 155.339844 C 124.804688 162.382812 124.945312 178.164062 125.507812 182.601562 C 106.277344 182.953125 87.1875 182.53125 67.957031 182.601562 C 67.957031 176.261719 67.605469 169.003906 64.574219 163.371094 C 62.671875 159.707031 58.234375 159.285156 55.699219 162.523438 C 50.839844 168.652344 50.980469 180.207031 53.9375 187.179688 C 56.050781 192.320312 59.574219 192.605469 63.800781 192.179688 C 70.351562 191.546875 72.605469 192.25 76.339844 186.265625 C 93.035156 186.265625 109.800781 185.769531 126.425781 186.6875 C 129.945312 196.335938 145.65625 198.308594 153.191406 187.320312 L 162.703125 188.449219 L 183.484375 188.871094 L 199.898438 188.800781 C 203.347656 193.800781 211.730469 195.421875 218.210938 193.519531 C 217.296875 194.011719 216.3125 194.363281 215.253906 194.648438 C 220.46875 195.351562 226.382812 193.589844 230.609375 188.800781 C 228.707031 188.941406 226.808594 189.011719 224.835938 189.082031 C 225.046875 188.730469 225.257812 188.449219 225.46875 188.09375 C 232.792969 187.8125 240.261719 187.039062 247.585938 186.96875 L 248.433594 188.09375 L 246.109375 188.09375 C 243.996094 188.09375 241.953125 188.164062 239.839844 188.234375 L 241.460938 188.449219 L 262.804688 188.871094 L 279.640625 188.800781 C 285.0625 196.335938 301.617188 196.40625 305.984375 188.234375 Z M 215.113281 162.59375 L 192.78125 161.328125 L 192.289062 159.988281 L 214.199219 161.328125 L 223.636719 160.480469 L 223.636719 160.972656 Z M 214.199219 159.355469 L 191.234375 158.4375 C 191.234375 158.4375 190.738281 157.3125 190.527344 156.890625 L 214.269531 157.945312 L 224.410156 156.605469 L 224.480469 158.367188 Z M 225.117188 155.058594 L 213.492188 156.675781 L 189.402344 155.761719 L 188.554688 154 L 212.367188 155.339844 L 225.117188 154.351562 Z M 221.242188 172.949219 L 221.382812 174.640625 C 203.488281 174.007812 173.480469 177.246094 158.265625 169.074219 C 178.410156 173.65625 200.179688 173.441406 221.242188 172.949219 Z M 157.347656 172.878906 L 156.503906 172.246094 C 166.296875 178.445312 215.394531 177.175781 221.664062 176.964844 L 221.875 179.359375 C 207.222656 179.148438 174.539062 181.964844 157.347656 172.878906 Z M 57.25 187.109375 C 53.445312 180.839844 53.023438 165.058594 59.644531 164.566406 C 55.558594 168.933594 54.855469 178.023438 57.320312 183.234375 C 56.332031 177.808594 56.261719 171.824219 59.503906 167.03125 C 58.515625 170.132812 58.164062 172.949219 58.164062 176.261719 C 58.164062 177.597656 58.234375 179.570312 58.65625 181.191406 C 59.503906 184.925781 63.027344 184.785156 64.152344 181.191406 C 64.574219 179.78125 64.855469 178.375 65.140625 177.667969 C 65.984375 181.261719 61.617188 194.222656 57.25 187.109375 Z M 138.753906 187.460938 L 137.273438 187.460938 C 134.171875 187.460938 131.214844 183.164062 129.945312 178.867188 C 127.761719 171.683594 130.582031 161.539062 135.722656 159.285156 C 130.933594 164.847656 128.328125 174.078125 134.101562 182.320312 C 131.636719 175.0625 131.074219 168.089844 136.074219 161.960938 C 133.820312 166.75 132.273438 172.246094 133.960938 177.386719 C 134.878906 180.347656 136.640625 183.164062 138.683594 183.164062 C 142.34375 183.164062 144.035156 180.488281 144.953125 177.457031 C 145.515625 175.625 145.867188 173.726562 146.148438 171.824219 C 147.558594 176.402344 144.953125 187.460938 138.753906 187.460938 Z M 307.464844 181.261719 C 307.464844 177.316406 306.761719 175.203125 305.703125 171.398438 L 310.847656 171.046875 C 312.535156 175.203125 313.453125 176.683594 313.453125 181.261719 Z M 321.199219 177.105469 C 321.199219 177.667969 320.988281 178.234375 320.636719 178.65625 L 320.285156 178.9375 L 320.355469 179.007812 C 320.003906 179.359375 319.511719 179.640625 319.015625 179.710938 C 318.171875 179.921875 317.75 179.78125 317.046875 179.429688 C 314.71875 178.234375 315.425781 174.429688 318.382812 174.429688 C 318.945312 174.429688 319.441406 174.570312 319.863281 174.851562 L 319.863281 174.78125 C 319.933594 174.851562 320.003906 174.921875 320.003906 174.992188 C 320.777344 175.414062 321.199219 176.191406 321.199219 177.105469 Z M 310.492188 159.847656 C 310.917969 157.382812 311.128906 154.988281 310.421875 152.519531 C 314.71875 154 316.480469 157.59375 310.492188 159.847656 Z M 292.53125 155.339844 L 305.632812 154.351562 L 305.632812 155.058594 L 293.726562 156.675781 L 268.933594 155.761719 L 268.085938 154 Z M 294.363281 159.355469 L 270.761719 158.4375 C 270.761719 158.4375 270.269531 157.3125 269.988281 156.890625 L 294.363281 157.945312 L 304.789062 156.605469 L 304.859375 158.367188 Z M 304.152344 160.410156 L 304.152344 160.902344 L 295.347656 162.59375 L 272.453125 161.328125 L 271.960938 159.988281 L 294.503906 161.328125 Z M 229.835938 159.847656 C 230.257812 157.382812 230.46875 154.988281 229.765625 152.519531 C 233.921875 154 235.683594 157.59375 229.835938 159.847656 Z M 236.808594 158.296875 C 235.542969 157.382812 234.484375 154.421875 232.582031 152.167969 C 231.105469 150.40625 229.203125 148.859375 226.949219 147.519531 L 228.777344 147.800781 L 231.386719 148.507812 C 233.851562 149.070312 235.964844 151.957031 237.65625 154.421875 C 239.699219 157.523438 241.742188 158.507812 244.488281 159.285156 C 258.789062 163.160156 275.273438 164.074219 290.207031 165.695312 C 297.25 166.46875 297.179688 166.257812 303.449219 164.636719 C 306.335938 163.863281 313.03125 160.691406 314.648438 160.550781 C 314.296875 164.214844 309.4375 164.636719 308.664062 166.75 L 316.128906 166.75 L 320.214844 167.171875 C 313.453125 169.425781 304.152344 170.414062 296.335938 170.203125 C 278.933594 169.78125 259.84375 169.144531 242.234375 166.328125 C 241.386719 162.523438 238.429688 159.425781 236.808594 158.296875 Z M 226.949219 181.261719 C 226.949219 177.316406 226.242188 175.203125 225.257812 171.398438 L 230.257812 171.046875 C 231.949219 175.203125 232.792969 176.683594 232.792969 181.261719 Z M 239.769531 178.65625 L 239.488281 178.9375 L 239.558594 179.007812 C 239.203125 179.359375 238.78125 179.640625 238.289062 179.710938 C 237.445312 179.921875 237.089844 179.78125 236.386719 179.429688 C 234.132812 178.234375 234.835938 174.429688 237.65625 174.429688 C 238.148438 174.429688 238.640625 174.570312 239.0625 174.851562 L 239.0625 174.78125 C 239.132812 174.851562 239.203125 174.921875 239.203125 174.992188 C 239.839844 175.484375 240.261719 176.261719 240.261719 177.105469 C 240.261719 177.667969 240.050781 178.234375 239.769531 178.65625 Z M 242.234375 170.695312 C 242.304688 170.484375 242.304688 170.273438 242.375 170.132812 C 261.464844 173.582031 281.894531 173.371094 301.6875 172.949219 L 301.828125 174.640625 C 285.34375 174.078125 258.859375 176.613281 242.304688 171.257812 Z M 242.796875 174.710938 C 260.339844 178.09375 296.6875 177.175781 302.039062 176.964844 L 302.25 179.359375 C 288.9375 179.148438 261.394531 181.332031 242.867188 175.695312 Z M 255.054688 186.40625 C 252.660156 186.40625 250.195312 186.40625 247.800781 186.265625 L 245.6875 183.515625 C 252.941406 184.855469 261.746094 184.925781 268.4375 184.855469 C 274.917969 184.855469 281.332031 184.925781 287.953125 184.925781 L 295.207031 184.925781 L 295.277344 186.546875 Z M 300.351562 181.261719 C 289.640625 181.613281 279.289062 182.8125 269.074219 182.53125 C 261.886719 182.320312 252.800781 182.8125 243.785156 181.121094 L 243.644531 180.980469 L 243.289062 178.515625 C 259.5625 182.460938 285.980469 180.699219 302.394531 180.628906 L 302.464844 181.332031 L 300.351562 181.332031 Z M 300.351562 181.261719 " fill-opacity="1" fill-rule="evenodd"/><g clip-path="url(#e4cfb1645b)"><path fill="#fdc251" d="M 187.148438 297.070312 C 173.058594 290.378906 159.675781 282.277344 147.558594 272.347656 C 143.191406 268.753906 139.105469 265.019531 135.230469 261.144531 L 122.550781 261.144531 C 140.230469 281.082031 162.070312 295.945312 186.9375 307.144531 C 212.859375 296.789062 234.90625 281.644531 252.449219 261.144531 L 239.910156 261.144531 C 225.960938 275.726562 208.632812 287.914062 187.148438 297.070312 Z M 187.148438 297.070312 " fill-opacity="1" fill-rule="evenodd"/></g><g clip-path="url(#9f2b8df089)"><path fill="#fdc251" d="M 295.699219 242.054688 L 350.222656 242.054688 L 350.222656 244.097656 L 295.699219 244.097656 Z M 295.699219 242.054688 " fill-opacity="1" fill-rule="evenodd"/></g><path fill="#fdc251" d="M 295.699219 246.632812 L 330.570312 246.632812 L 330.570312 248.675781 L 295.699219 248.675781 Z M 295.699219 246.632812 " fill-opacity="1" fill-rule="evenodd"/><g clip-path="url(#fd06d0dc9b)"><path fill="#fdc251" d="M 24.773438 242.054688 L 79.296875 242.054688 L 79.296875 244.097656 L 24.773438 244.097656 Z M 24.773438 242.054688 " fill-opacity="1" fill-rule="evenodd"/></g><path fill="#fdc251" d="M 44.429688 246.632812 L 79.296875 246.632812 L 79.296875 248.675781 L 44.429688 248.675781 Z M 44.429688 246.632812 " fill-opacity="1" fill-rule="evenodd"/><path fill="#ffffff" d="M 163.832031 107.859375 L 162.5625 104.054688 L 161.292969 107.859375 L 157.277344 107.859375 L 160.589844 110.253906 L 159.320312 114.058594 L 162.5625 111.734375 L 165.800781 114.058594 L 164.535156 110.253906 L 167.84375 107.859375 Z M 163.832031 107.859375 " fill-opacity="1" fill-rule="evenodd"/><path fill="#ffffff" d="M 189.332031 103.421875 L 187.5 97.644531 L 185.597656 103.421875 L 179.539062 103.421875 L 184.46875 107.015625 L 182.566406 112.792969 L 187.5 109.199219 L 192.429688 112.792969 L 190.527344 107.015625 L 195.460938 103.421875 Z M 189.332031 103.421875 " fill-opacity="1" fill-rule="evenodd"/><path fill="#ffffff" d="M 213.632812 107.859375 L 212.4375 104.054688 L 211.167969 107.859375 L 207.152344 107.859375 L 210.394531 110.253906 L 209.125 114.058594 L 212.4375 111.734375 L 215.675781 114.058594 L 214.410156 110.253906 L 217.648438 107.859375 Z M 213.632812 107.859375 " fill-opacity="1" fill-rule="evenodd"/><path fill="#ffffff" d="M 238.570312 107.859375 L 237.304688 104.054688 L 236.105469 107.859375 L 232.089844 107.859375 L 235.332031 110.253906 L 234.0625 114.058594 L 237.304688 111.734375 L 240.613281 114.058594 L 239.347656 110.253906 L 242.585938 107.859375 Z M 238.570312 107.859375 " fill-opacity="1" fill-rule="evenodd"/><path fill="#ffffff" d="M 139.667969 110.253906 L 142.910156 107.859375 L 138.894531 107.859375 L 137.625 104.054688 L 136.425781 107.859375 L 132.34375 107.859375 L 135.652344 110.253906 L 134.386719 114.058594 L 137.625 111.734375 L 140.867188 114.058594 Z M 139.667969 110.253906 " fill-opacity="1" fill-rule="evenodd"/><path fill="#ffffff" d="M 249.984375 98.703125 C 207.222656 85.953125 164.464844 86.9375 121.777344 99.96875 C 163.054688 91.375 205.816406 90.742188 249.984375 98.703125 Z M 249.984375 98.703125 " fill-opacity="1" fill-rule="evenodd"/><path fill="#ffffff" d="M 138.683594 258.679688 C 151.785156 270.375 166.71875 281.574219 186.792969 291.648438 C 206.871094 281.574219 221.875 270.375 234.90625 258.679688 C 220.539062 269.738281 204.828125 280.941406 186.792969 287.703125 C 168.761719 280.941406 153.050781 269.738281 138.683594 258.679688 Z M 138.683594 258.679688 " fill-opacity="1" fill-rule="evenodd"/><g fill="#ffffff" fill-opacity="1"><g transform="translate(45.273437, 229.808834)"><g><path d="M 9.109375 0 L 0.65625 -25.6875 L 6.765625 -25.6875 L 12.8125 -4.75 L 13.3125 -4.75 L 19.34375 -25.6875 L 25.421875 -25.6875 L 16.890625 0 Z M 9.109375 0 "/></g></g></g><g fill="#ffffff" fill-opacity="1"><g transform="translate(71.301775, 229.808834)"><g><path d="M 2.765625 0 L 2.765625 -25.6875 L 8.375 -25.6875 L 8.375 0 Z M 6.65625 0 L 6.65625 -4.59375 L 22.421875 -4.59375 L 22.421875 0 Z M 6.65625 -10.890625 L 6.65625 -15.0625 L 20.46875 -15.0625 L 20.46875 -10.890625 Z M 6.65625 -21.140625 L 6.65625 -25.6875 L 22.34375 -25.6875 L 22.34375 -21.140625 Z M 6.65625 -21.140625 "/></g></g></g><g fill="#ffffff" fill-opacity="1"><g transform="translate(95.190261, 229.808834)"><g><path d="M 2.765625 0 L 2.765625 -25.6875 L 8.375 -25.6875 L 8.375 0 Z M 6.65625 0 L 6.65625 -4.59375 L 22.421875 -4.59375 L 22.421875 0 Z M 6.65625 -10.890625 L 6.65625 -15.0625 L 20.46875 -15.0625 L 20.46875 -10.890625 Z M 6.65625 -21.140625 L 6.65625 -25.6875 L 22.34375 -25.6875 L 22.34375 -21.140625 Z M 6.65625 -21.140625 "/></g></g></g><g fill="#ffffff" fill-opacity="1"><g transform="translate(119.078748, 229.808834)"><g><path d="M 2.765625 0 L 2.765625 -25.6875 L 13.1875 -25.6875 C 14.4375 -25.6875 15.601562 -25.585938 16.6875 -25.390625 C 17.78125 -25.203125 18.773438 -24.910156 19.671875 -24.515625 C 20.566406 -24.128906 21.34375 -23.632812 22 -23.03125 C 22.664062 -22.4375 23.164062 -21.726562 23.5 -20.90625 C 23.84375 -20.09375 24.015625 -19.171875 24.015625 -18.140625 C 24.015625 -17.234375 23.878906 -16.414062 23.609375 -15.6875 C 23.335938 -14.957031 22.914062 -14.3125 22.34375 -13.75 C 21.769531 -13.195312 21.046875 -12.742188 20.171875 -12.390625 C 19.304688 -12.046875 18.304688 -11.804688 17.171875 -11.671875 L 17.171875 -11.125 C 18.492188 -10.96875 19.554688 -10.65625 20.359375 -10.1875 C 21.160156 -9.726562 21.785156 -9.09375 22.234375 -8.28125 C 22.691406 -7.476562 23.09375 -6.484375 23.4375 -5.296875 L 24.953125 0 L 18.765625 0 L 17.59375 -4.859375 C 17.363281 -5.898438 17.023438 -6.71875 16.578125 -7.3125 C 16.140625 -7.914062 15.585938 -8.332031 14.921875 -8.5625 C 14.265625 -8.789062 13.46875 -8.90625 12.53125 -8.90625 L 8.375 -8.90625 L 8.375 0 Z M 8.375 -13.15625 L 11.984375 -13.15625 C 12.429688 -13.15625 12.925781 -13.164062 13.46875 -13.1875 C 14.007812 -13.21875 14.554688 -13.296875 15.109375 -13.421875 C 15.671875 -13.554688 16.175781 -13.765625 16.625 -14.046875 C 17.082031 -14.335938 17.460938 -14.738281 17.765625 -15.25 C 18.066406 -15.769531 18.21875 -16.4375 18.21875 -17.25 C 18.21875 -18.070312 18.070312 -18.742188 17.78125 -19.265625 C 17.5 -19.785156 17.132812 -20.1875 16.6875 -20.46875 C 16.25 -20.757812 15.785156 -20.96875 15.296875 -21.09375 C 14.804688 -21.226562 14.335938 -21.304688 13.890625 -21.328125 C 13.453125 -21.359375 13.101562 -21.375 12.84375 -21.375 L 8.375 -21.375 Z M 8.375 -13.15625 "/></g></g></g><g fill="#ffffff" fill-opacity="1"><g transform="translate(145.262714, 229.808834)"><g><path d="M 0.65625 0 L 9.421875 -25.6875 L 17.546875 -25.6875 L 26.34375 0 L 20.234375 0 L 13.78125 -21.25 L 13.234375 -21.25 L 6.734375 0 Z M 5.5625 -5.015625 L 5.5625 -8.875 L 22.21875 -8.875 L 22.21875 -5.015625 Z M 5.5625 -5.015625 "/></g></g></g><g fill="#ffffff" fill-opacity="1"><g transform="translate(172.263709, 229.808834)"><g/></g></g><g fill="#ffffff" fill-opacity="1"><g transform="translate(181.134356, 229.808834)"><g><path d="M 2.765625 0 L 2.765625 -25.6875 L 13.1875 -25.6875 C 14.4375 -25.6875 15.601562 -25.585938 16.6875 -25.390625 C 17.78125 -25.203125 18.773438 -24.910156 19.671875 -24.515625 C 20.566406 -24.128906 21.34375 -23.632812 22 -23.03125 C 22.664062 -22.4375 23.164062 -21.726562 23.5 -20.90625 C 23.84375 -20.09375 24.015625 -19.171875 24.015625 -18.140625 C 24.015625 -17.234375 23.878906 -16.414062 23.609375 -15.6875 C 23.335938 -14.957031 22.914062 -14.3125 22.34375 -13.75 C 21.769531 -13.195312 21.046875 -12.742188 20.171875 -12.390625 C 19.304688 -12.046875 18.304688 -11.804688 17.171875 -11.671875 L 17.171875 -11.125 C 18.492188 -10.96875 19.554688 -10.65625 20.359375 -10.1875 C 21.160156 -9.726562 21.785156 -9.09375 22.234375 -8.28125 C 22.691406 -7.476562 23.09375 -6.484375 23.4375 -5.296875 L 24.953125 0 L 18.765625 0 L 17.59375 -4.859375 C 17.363281 -5.898438 17.023438 -6.71875 16.578125 -7.3125 C 16.140625 -7.914062 15.585938 -8.332031 14.921875 -8.5625 C 14.265625 -8.789062 13.46875 -8.90625 12.53125 -8.90625 L 8.375 -8.90625 L 8.375 0 Z M 8.375 -13.15625 L 11.984375 -13.15625 C 12.429688 -13.15625 12.925781 -13.164062 13.46875 -13.1875 C 14.007812 -13.21875 14.554688 -13.296875 15.109375 -13.421875 C 15.671875 -13.554688 16.175781 -13.765625 16.625 -14.046875 C 17.082031 -14.335938 17.460938 -14.738281 17.765625 -15.25 C 18.066406 -15.769531 18.21875 -16.4375 18.21875 -17.25 C 18.21875 -18.070312 18.070312 -18.742188 17.78125 -19.265625 C 17.5 -19.785156 17.132812 -20.1875 16.6875 -20.46875 C 16.25 -20.757812 15.785156 -20.96875 15.296875 -21.09375 C 14.804688 -21.226562 14.335938 -21.304688 13.890625 -21.328125 C 13.453125 -21.359375 13.101562 -21.375 12.84375 -21.375 L 8.375 -21.375 Z M 8.375 -13.15625 "/></g></g></g><g fill="#ffffff" fill-opacity="1"><g transform="translate(207.318322, 229.808834)"><g><path d="M 2.765625 0 L 2.765625 -25.6875 L 8.375 -25.6875 L 8.375 0 Z M 6.65625 0 L 6.65625 -4.59375 L 22.421875 -4.59375 L 22.421875 0 Z M 6.65625 -10.890625 L 6.65625 -15.0625 L 20.46875 -15.0625 L 20.46875 -10.890625 Z M 6.65625 -21.140625 L 6.65625 -25.6875 L 22.34375 -25.6875 L 22.34375 -21.140625 Z M 6.65625 -21.140625 "/></g></g></g><g fill="#ffffff" fill-opacity="1"><g transform="translate(231.206808, 229.808834)"><g><path d="M 2.765625 0 L 2.765625 -25.6875 L 10.078125 -25.6875 L 21.609375 -7.46875 L 21.984375 -7.46875 L 21.640625 -25.6875 L 27.125 -25.6875 L 27.125 0 L 20.46875 0 L 8.296875 -19 L 7.90625 -19 L 8.21875 0 Z M 2.765625 0 "/></g></g></g><g fill="#ffffff" fill-opacity="1"><g transform="translate(261.086884, 229.808834)"><g><path d="M 8.171875 0 L 8.171875 -25.6875 L 13.8125 -25.6875 L 13.8125 0 Z M 0.703125 -20.984375 L 0.703125 -25.6875 L 21.328125 -25.6875 L 21.328125 -20.984375 Z M 0.703125 -20.984375 "/></g></g></g><g fill="#ffffff" fill-opacity="1"><g transform="translate(283.107878, 229.808834)"><g><path d="M 0.65625 0 L 9.421875 -25.6875 L 17.546875 -25.6875 L 26.34375 0 L 20.234375 0 L 13.78125 -21.25 L 13.234375 -21.25 L 6.734375 0 Z M 5.5625 -5.015625 L 5.5625 -8.875 L 22.21875 -8.875 L 22.21875 -5.015625 Z M 5.5625 -5.015625 "/></g></g></g><g fill="#ffffff" fill-opacity="1"><g transform="translate(310.108884, 229.808834)"><g><path d="M 2.765625 0 L 2.765625 -25.6875 L 8.375 -25.6875 L 8.375 0 Z M 3.890625 0 L 3.890625 -4.75 L 19.15625 -4.75 L 19.15625 0 Z M 3.890625 0 "/></g></g></g><g fill="#ffffff" fill-opacity="1"><g transform="translate(147.257426, 251.528011)"><g><path d="M 5.6875 0.109375 C 4.71875 0.109375 3.789062 -0.0390625 2.90625 -0.34375 C 2.03125 -0.65625 1.351562 -1.066406 0.875 -1.578125 L 1.40625 -2.625 C 1.875 -2.15625 2.492188 -1.773438 3.265625 -1.484375 C 4.046875 -1.203125 4.851562 -1.0625 5.6875 -1.0625 C 6.84375 -1.0625 7.710938 -1.269531 8.296875 -1.6875 C 8.878906 -2.113281 9.171875 -2.664062 9.171875 -3.34375 C 9.171875 -3.863281 9.007812 -4.28125 8.6875 -4.59375 C 8.375 -4.90625 7.988281 -5.140625 7.53125 -5.296875 C 7.070312 -5.460938 6.4375 -5.644531 5.625 -5.84375 C 4.65625 -6.09375 3.878906 -6.332031 3.296875 -6.5625 C 2.710938 -6.789062 2.210938 -7.140625 1.796875 -7.609375 C 1.390625 -8.078125 1.1875 -8.710938 1.1875 -9.515625 C 1.1875 -10.171875 1.359375 -10.765625 1.703125 -11.296875 C 2.046875 -11.835938 2.578125 -12.269531 3.296875 -12.59375 C 4.015625 -12.914062 4.90625 -13.078125 5.96875 -13.078125 C 6.707031 -13.078125 7.429688 -12.972656 8.140625 -12.765625 C 8.847656 -12.566406 9.460938 -12.285156 9.984375 -11.921875 L 9.515625 -10.828125 C 8.972656 -11.191406 8.390625 -11.460938 7.765625 -11.640625 C 7.148438 -11.816406 6.550781 -11.90625 5.96875 -11.90625 C 4.832031 -11.90625 3.972656 -11.6875 3.390625 -11.25 C 2.816406 -10.8125 2.53125 -10.242188 2.53125 -9.546875 C 2.53125 -9.035156 2.6875 -8.617188 3 -8.296875 C 3.320312 -7.984375 3.71875 -7.742188 4.1875 -7.578125 C 4.664062 -7.410156 5.304688 -7.226562 6.109375 -7.03125 C 7.054688 -6.800781 7.820312 -6.570312 8.40625 -6.34375 C 9 -6.113281 9.5 -5.765625 9.90625 -5.296875 C 10.3125 -4.835938 10.515625 -4.210938 10.515625 -3.421875 C 10.515625 -2.765625 10.335938 -2.164062 9.984375 -1.625 C 9.640625 -1.09375 9.101562 -0.671875 8.375 -0.359375 C 7.644531 -0.046875 6.75 0.109375 5.6875 0.109375 Z M 5.6875 0.109375 "/></g></g></g><g fill="#ffffff" fill-opacity="1"><g transform="translate(160.951849, 251.528011)"><g><path d="M 10.3125 -4.46875 L 2.171875 -4.46875 C 2.242188 -3.445312 2.628906 -2.625 3.328125 -2 C 4.035156 -1.382812 4.925781 -1.078125 6 -1.078125 C 6.601562 -1.078125 7.15625 -1.179688 7.65625 -1.390625 C 8.164062 -1.609375 8.609375 -1.925781 8.984375 -2.34375 L 9.71875 -1.5 C 9.289062 -0.976562 8.75 -0.582031 8.09375 -0.3125 C 7.445312 -0.0390625 6.738281 0.09375 5.96875 0.09375 C 4.96875 0.09375 4.078125 -0.117188 3.296875 -0.546875 C 2.523438 -0.972656 1.925781 -1.5625 1.5 -2.3125 C 1.070312 -3.0625 0.859375 -3.914062 0.859375 -4.875 C 0.859375 -5.820312 1.0625 -6.671875 1.46875 -7.421875 C 1.882812 -8.171875 2.453125 -8.753906 3.171875 -9.171875 C 3.898438 -9.597656 4.710938 -9.8125 5.609375 -9.8125 C 6.515625 -9.8125 7.320312 -9.597656 8.03125 -9.171875 C 8.75 -8.753906 9.3125 -8.171875 9.71875 -7.421875 C 10.125 -6.679688 10.328125 -5.832031 10.328125 -4.875 Z M 5.609375 -8.6875 C 4.671875 -8.6875 3.882812 -8.382812 3.25 -7.78125 C 2.613281 -7.1875 2.253906 -6.40625 2.171875 -5.4375 L 9.078125 -5.4375 C 8.984375 -6.40625 8.617188 -7.1875 7.984375 -7.78125 C 7.347656 -8.382812 6.554688 -8.6875 5.609375 -8.6875 Z M 5.609375 -8.6875 "/></g></g></g><g fill="#ffffff" fill-opacity="1"><g transform="translate(174.442727, 251.528011)"><g><path d="M 3.09375 -7.828125 C 3.40625 -8.484375 3.863281 -8.976562 4.46875 -9.3125 C 5.082031 -9.644531 5.835938 -9.8125 6.734375 -9.8125 L 6.734375 -8.53125 L 6.421875 -8.546875 C 5.398438 -8.546875 4.597656 -8.234375 4.015625 -7.609375 C 3.429688 -6.984375 3.140625 -6.101562 3.140625 -4.96875 L 3.140625 0 L 1.828125 0 L 1.828125 -9.734375 L 3.09375 -9.734375 Z M 3.09375 -7.828125 "/></g></g></g><g fill="#ffffff" fill-opacity="1"><g transform="translate(184.177323, 251.528011)"><g><path d="M 10.015625 -9.734375 L 5.6875 0 L 4.328125 0 L 0.015625 -9.734375 L 1.390625 -9.734375 L 5.03125 -1.4375 L 8.71875 -9.734375 Z M 10.015625 -9.734375 "/></g></g></g><g fill="#ffffff" fill-opacity="1"><g transform="translate(196.520965, 251.528011)"><g><path d="M 1.828125 -9.734375 L 3.140625 -9.734375 L 3.140625 0 L 1.828125 0 Z M 2.5 -11.875 C 2.21875 -11.875 1.984375 -11.960938 1.796875 -12.140625 C 1.617188 -12.328125 1.53125 -12.550781 1.53125 -12.8125 C 1.53125 -13.0625 1.617188 -13.273438 1.796875 -13.453125 C 1.984375 -13.640625 2.21875 -13.734375 2.5 -13.734375 C 2.769531 -13.734375 2.992188 -13.644531 3.171875 -13.46875 C 3.359375 -13.289062 3.453125 -13.078125 3.453125 -12.828125 C 3.453125 -12.554688 3.359375 -12.328125 3.171875 -12.140625 C 2.992188 -11.960938 2.769531 -11.875 2.5 -11.875 Z M 2.5 -11.875 "/></g></g></g><g fill="#ffffff" fill-opacity="1"><g transform="translate(203.81306, 251.528011)"><g><path d="M 5.875 0.09375 C 4.90625 0.09375 4.039062 -0.113281 3.28125 -0.53125 C 2.519531 -0.957031 1.925781 -1.546875 1.5 -2.296875 C 1.070312 -3.054688 0.859375 -3.914062 0.859375 -4.875 C 0.859375 -5.820312 1.070312 -6.671875 1.5 -7.421875 C 1.925781 -8.171875 2.519531 -8.753906 3.28125 -9.171875 C 4.039062 -9.597656 4.90625 -9.8125 5.875 -9.8125 C 6.707031 -9.8125 7.453125 -9.644531 8.109375 -9.3125 C 8.773438 -8.988281 9.300781 -8.515625 9.6875 -7.890625 L 8.703125 -7.21875 C 8.378906 -7.695312 7.96875 -8.054688 7.46875 -8.296875 C 6.976562 -8.546875 6.445312 -8.671875 5.875 -8.671875 C 5.164062 -8.671875 4.53125 -8.507812 3.96875 -8.1875 C 3.40625 -7.875 2.96875 -7.425781 2.65625 -6.84375 C 2.34375 -6.269531 2.1875 -5.613281 2.1875 -4.875 C 2.1875 -4.113281 2.34375 -3.445312 2.65625 -2.875 C 2.96875 -2.300781 3.40625 -1.859375 3.96875 -1.546875 C 4.53125 -1.234375 5.164062 -1.078125 5.875 -1.078125 C 6.445312 -1.078125 6.976562 -1.191406 7.46875 -1.421875 C 7.96875 -1.660156 8.378906 -2.019531 8.703125 -2.5 L 9.6875 -1.828125 C 9.300781 -1.203125 8.773438 -0.722656 8.109375 -0.390625 C 7.441406 -0.0664062 6.695312 0.09375 5.875 0.09375 Z M 5.875 0.09375 "/></g></g></g><g fill="#ffffff" fill-opacity="1"><g transform="translate(216.545275, 251.528011)"><g><path d="M 10.3125 -4.46875 L 2.171875 -4.46875 C 2.242188 -3.445312 2.628906 -2.625 3.328125 -2 C 4.035156 -1.382812 4.925781 -1.078125 6 -1.078125 C 6.601562 -1.078125 7.15625 -1.179688 7.65625 -1.390625 C 8.164062 -1.609375 8.609375 -1.925781 8.984375 -2.34375 L 9.71875 -1.5 C 9.289062 -0.976562 8.75 -0.582031 8.09375 -0.3125 C 7.445312 -0.0390625 6.738281 0.09375 5.96875 0.09375 C 4.96875 0.09375 4.078125 -0.117188 3.296875 -0.546875 C 2.523438 -0.972656 1.925781 -1.5625 1.5 -2.3125 C 1.070312 -3.0625 0.859375 -3.914062 0.859375 -4.875 C 0.859375 -5.820312 1.0625 -6.671875 1.46875 -7.421875 C 1.882812 -8.171875 2.453125 -8.753906 3.171875 -9.171875 C 3.898438 -9.597656 4.710938 -9.8125 5.609375 -9.8125 C 6.515625 -9.8125 7.320312 -9.597656 8.03125 -9.171875 C 8.75 -8.753906 9.3125 -8.171875 9.71875 -7.421875 C 10.125 -6.679688 10.328125 -5.832031 10.328125 -4.875 Z M 5.609375 -8.6875 C 4.671875 -8.6875 3.882812 -8.382812 3.25 -7.78125 C 2.613281 -7.1875 2.253906 -6.40625 2.171875 -5.4375 L 9.078125 -5.4375 C 8.984375 -6.40625 8.617188 -7.1875 7.984375 -7.78125 C 7.347656 -8.382812 6.554688 -8.6875 5.609375 -8.6875 Z M 5.609375 -8.6875 "/></g></g></g></svg>